<svg width="11" height="11" viewBox="0 0 11 11" fill="none" xmlns="http://www.w3.org/2000/svg">
<mask id="mask0_51_13" style="mask-type:alpha" maskUnits="userSpaceOnUse" x="0" y="0" width="11" height="11">
<rect width="11" height="11" fill="#D9D9D9"/>
</mask>
<g mask="url(#mask0_51_13)">
<path d="M5.50008 9.62499L4.8355 9.02915C4.06397 8.33401 3.42612 7.73436 2.92196 7.23019C2.41779 6.72603 2.01675 6.27342 1.71883 5.87238C1.42091 5.47134 1.21275 5.10276 1.09435 4.76665C0.975949 4.43054 0.916748 4.08679 0.916748 3.7354C0.916748 3.01735 1.15737 2.41769 1.63862 1.93644C2.11987 1.45519 2.71953 1.21457 3.43758 1.21457C3.8348 1.21457 4.21293 1.2986 4.57196 1.46665C4.93098 1.63471 5.24036 1.87151 5.50008 2.17707C5.7598 1.87151 6.06918 1.63471 6.42821 1.46665C6.78723 1.2986 7.16536 1.21457 7.56258 1.21457C8.28064 1.21457 8.88029 1.45519 9.36154 1.93644C9.84279 2.41769 10.0834 3.01735 10.0834 3.7354C10.0834 4.08679 10.0242 4.43054 9.90581 4.76665C9.78741 5.10276 9.57925 5.47134 9.28133 5.87238C8.98341 6.27342 8.58237 6.72603 8.07821 7.23019C7.57404 7.73436 6.93619 8.33401 6.16466 9.02915L5.50008 9.62499Z" fill="white"/>
</g>
</svg>
